# AST/ASF file generated using VICON BodyLanguage
# -----------------------------------------------
:version 1.10
:name VICON
:units
  mass 1.0
  length 0.45
  angle deg
:documentation
   .ast/.asf automatically generated from VICON data using
   VICON BodyBuilder and BodyLanguage model FoxedUp or BRILLIANT.MOD
:root
   order TX TY TZ RX RY RZ
   axis XYZ
   position 0 0 0  
   orientation 0 0 0 
:bonedata
  begin
     id 1 
     name lhipjoint
     direction 0.543289 -0.788407 0.288535 
     length 2.57127 
     axis 0 0 0  XYZ
  end
  begin
     id 2 
     name lfemur
     direction 0.34202 -0.939693 0  
     length 8.47298  
     axis 0 0 20  XYZ
    dof rx ry rz
    limits (-160.0 20.0)
           (-70.0 70.0)
           (-60.0 70.0)
  end
  begin
     id 3 
     name ltibia
     direction 0.34202 -0.939693 0   
     length 8.13367   
     axis 0 0 20   XYZ
    dof rx
    limits (-10.0 170.0)
  end
  begin
     id 4 
     name lfoot
     direction 0.114037 -0.313314 0.942778   
     length 2.67113   
     axis -90 7.62852e-016 20   XYZ
    dof rx rz
    limits (-45.0 90.0)
           (-70.0 20.0)
  end
  begin
     id 5 
     name ltoes
     direction 1.536e-011 -4.21847e-011 1   
     length 1.32217   
     axis -90 7.62852e-016 20   XYZ
    dof rx
    limits (-90.0 20.0)
  end
  begin
     id 6 
     name rhipjoint
     direction -0.571293 -0.770752 0.282074   
     length 2.63017  
     axis 0 0 0  XYZ 
  end
  begin
     id 7 
     name rfemur
     direction -0.34202 -0.939693 0   
     length 8.60885   
     axis 0 0 -20   XYZ
    dof rx ry rz
    limits (-160.0 20.0)
           (-70.0 70.0)
           (-70.0 60.0)
  end
  begin
     id 8 
     name rtibia
     direction -0.34202 -0.939693 0   
     length 8.07673   
     axis 0 0 -20   XYZ
    dof rx
    limits (-10.0 170.0)
 end
 begin
     id 9 
     name rfoot
     direction -0.121336 -0.333368 0.934956   
     length 2.81602  
     axis -90 -7.62852e-016 -20   XYZ
    dof rx rz
    limits (-45.0 90.0)
           (-20.0 70.0)
  end
  begin
     id 10 
     name rtoes
     direction -1.53491e-011 -4.21808e-011 1   
     length 1.38905   
     axis -90 -7.62852e-016 -20   XYZ
    dof rx
    limits (-90.0 20.0)
  end
  begin
     id 11 
     name lowerback
     direction 0.0136776 0.999869 -0.00861835   
     length 2.14087   
     axis 0 0 0   XYZ
    dof rx ry rz
    limits (-20.0 45.0)
           (-30.0 30.0)
           (-30.0 30.0)
  end
  begin
     id 12 
     name upperback
     direction -0.00789158 0.999804 0.0181308   
     length 2.14151   
     axis 0 0 0   XYZ
    dof rx ry rz
    limits (-20.0 45.0)
           (-30.0 30.0)
           (-30.0 30.0)
  end
  begin
     id 13 
     name thorax
     direction -0.0135231 0.999666 0.0220247   
     length 2.13644   
     axis 0 0 0   XYZ
    dof rx ry rz
    limits (-20.0 45.0)
           (-30.0 30.0)
           (-30.0 30.0)
  end
  begin
     id 14 
     name lowerneck
     direction -0.0392259 0.997317 0.0618018   
     length 1.65045   
     axis 0 0 0   XYZ
    dof rx ry rz
    limits (-20.0 45.0)
           (-30.0 30.0)
           (-30.0 30.0)
  end
  begin
     id 15 
     name upperneck
     direction 0.0765547 0.994276 -0.0745319   
     length 1.66045   
     axis 0 0 0   XYZ
    dof rx ry rz
    limits (-20.0 45.0)
           (-30.0 30.0)
           (-30.0 30.0)
  end
  begin
     id 16
     name head
     direction 0.0241564 0.999031 -0.036785  
     length 1.66594  
     axis 0 0 0   XYZ
    dof rx ry rz
    limits (-20.0 45.0)
           (-30.0 30.0)
           (-30.0 30.0)
  end
  begin
     id 17 
     name lclavicle
     direction 0.967398 0.249018 0.0461573  
     length 3.75176  
     axis 0 0 0   XYZ
    dof ry rz
    limits (-20.0 10.0)
           (0.0 20.0)
  end
  begin
     id 18 
     name lhumerus
     direction 1 -4.48963e-011 -3.05005e-027   
     length 5.93342   
     axis 180 -30 -90   XYZ
    dof rx ry rz
    limits (-60.0 90.0)
           (-90.0 90.0)
           (-90.0 90.0)
  end
  begin
     id 19
     name lradius
     direction 1 -4.48957e-011 1.07006e-026   
     length 3.94763   
     axis 180 -30 -90   XYZ
    dof rx
    limits (-10.0 170.0)
  end
  begin
     id 20
     name lwrist
     direction 1 -4.48978e-011 1.92422e-026   
     length 1.97382   
     axis -1.18182e-014 90 90   XYZ
    dof ry
    limits (-180.0 0.0)
 end
  begin
     id 21 
     name lhand
     direction 1 -4.48931e-011 3.84844e-026   
     length 0.560187   
     axis -2.45563e-014 90 90   XYZ
    dof rx rz
    limits (-90.0 90.0)
           (-45.0 45.0)
  end
  begin
     id 22 
     name lfingers
     direction 1 -4.48952e-011 7.69687e-026   
     length 0.451637   
     axis -4.91126e-014 90 90   XYZ
    dof rx
    limits (0.0 90.0)
  end
  begin
     id 23
     name lthumb
     direction 0.707107 -6.34901e-011 0.707107   
     length 0.648463   
     axis -90 45 2.85299e-015   XYZ
    dof rx rz
    limits (-45.0 45.0)
           (-45.0 45.0)
  end
  begin
     id 24 
     name rclavicle
     direction -0.965946 0.258716 0.00371831   
     length 3.63667  
     axis 0 0 0   XYZ 
    dof ry rz
    limits (-10.0 20.0)
           (-20.0 0.0)
  end
  begin
     id 25 
     name rhumerus
     direction -1 -4.48966e-011 -1.78361e-028  
     length 6.28647   
     axis 180 30 90   XYZ
    dof rx ry rz
    limits (-90.0 60.0)
           (-90.0 90.0)
           (-90.0 90.0)
  end
  begin
     id 26 
     name rradius
     direction -1 -4.48961e-011 1.05248e-026   
     length 3.81645   
     axis 180 30 90   XYZ
    dof rx
    limits (-10.0 170.0)
  end
  begin
     id 27 
     name rwrist
     direction -1 -4.48979e-011 1.92422e-026   
     length 1.90822   
     axis -1.18182e-014 -90 -90   XYZ
    dof ry
    limits (-180.0 0.0)
  end
  begin
     id 28
     name rhand
     direction -1 -4.48937e-011 3.84844e-026   
     length 0.646185   
     axis -2.45563e-014 -90 -90   XYZ
    dof rx rz
    limits (-90.0 90.0)
           (-45.0 45.0)
  end
  begin
     id 29
     name rfingers
     direction -1 -4.48953e-011 7.69687e-026   
     length 0.520971   
     axis -4.91126e-014 -90 -90   XYZ
    dof rx
    limits (0.0 90.0)
  end
  begin
     id 30
     name rthumb
     direction -0.707107 -6.3494e-011 0.707107   
     length 0.748013   
     axis -90 -45 -2.85299e-015   XYZ
    dof rx rz
    limits (-45.0 45.0)
           (-45.0 45.0)
  end
:hierarchy
  begin
    root lhipjoint rhipjoint lowerback
    lhipjoint lfemur
    lfemur ltibia
    ltibia lfoot
    lfoot ltoes
    rhipjoint rfemur
    rfemur rtibia
    rtibia rfoot
    rfoot rtoes
    lowerback upperback
    upperback thorax
    thorax lowerneck lclavicle rclavicle
    lowerneck upperneck
    upperneck head
    lclavicle lhumerus
    lhumerus lradius
    lradius lwrist
    lwrist lhand lthumb
    lhand lfingers
    rclavicle rhumerus
    rhumerus rradius
    rradius rwrist
    rwrist rhand rthumb
    rhand rfingers
  end

#!OML:ASF H:\HAZMAT1\Patient Classification 1\Patient 3\Session 1\dancer.ASF
:FULLY-SPECIFIED
:DEGREES
105
upperback 2.968540 0.363639 -5.564430
rfoot 23.087799 -17.786100
lradius 31.644199
lthumb 14.063500 35.217300
rradius 28.999100
lwrist -11.399600
rhand -32.328899 -10.011300
rhumerus -1.574310 35.658699 -31.495899
lowerneck -8.303270 -5.440330 -2.970950
lhand -11.993300 5.713110
ltibia 28.834600
head 8.553520 -4.786460 4.371480
rwrist 24.332500
lfingers 7.125020
rtoes 25.436399
lowerback 2.551880 0.402672 1.788850
rfingers 7.125020
lclavicle 0.000000 -0.000000
upperneck 19.568399 -11.512400 15.262700
rfemur -70.181900 -22.433001 26.595800
thorax 1.685310 0.173574 -6.804710
rclavicle 0.000000 -0.000000
rtibia 44.674198
lfoot -22.909000 5.397340
lhumerus -34.415199 -32.347000 34.650200
rthumb -5.566280 -39.918201
root 1.638910 19.488800 39.247601 -162.524002 -35.504799 545.070984
ltoes 3.925350
lfemur -24.145901 -16.293200 -6.471490
106
upperback 2.266780 5.276450 -9.191840
rfoot 36.068600 -9.374510
lradius 29.696600
lthumb 6.034140 35.320099
rradius 44.881802
lwrist -17.457100
rhand -33.885300 -2.610600
rhumerus 25.847401 31.458401 -14.562100
lowerneck -7.425650 -5.441670 -2.746070
lhand -20.316601 5.425980
ltibia 20.032900
head 7.980070 -5.008770 5.983550
rwrist 27.734900
lfingers 7.125020
rtoes 33.453899
lowerback 1.459010 4.198440 3.329100
rfingers 7.125020
lclavicle 0.000000 0.000000
upperneck 16.983500 -12.230300 20.357599
rfemur -97.113503 -21.544901 53.129101
thorax 2.776430 2.681070 -11.639800
rclavicle 0.000000 0.000000
rtibia 64.889000
lfoot -17.518999 17.367800
lhumerus -29.063101 -33.158401 26.241100
rthumb -7.068860 -32.472599
root 2.132920 20.093000 40.216400 -171.287994 -35.009300 560.255005
ltoes 3.987960
lfemur -22.884600 -22.724701 9.445920
107
upperback 2.432870 6.349670 -10.254100
rfoot 38.289299 -7.134070
lradius 25.107300
lthumb 1.489970 36.066002
rradius 51.707699
lwrist -21.535000
rhand -35.871399 -2.688800
rhumerus 35.033501 28.781000 -13.539800
lowerneck -7.241660 -4.156080 -1.652160
lhand -25.022400 6.091440
ltibia 14.684700
head 7.472770 -4.101630 5.930490
rwrist 30.966299
lfingers 7.125020
rtoes 35.562199
lowerback 1.086740 5.110100 1.403710
rfingers 7.125020
lclavicle 0.000000 0.000000
upperneck 16.502600 -10.331700 20.170601
rfemur -100.438004 -17.238899 59.838699
thorax 3.321700 3.148500 -11.626600
rclavicle 0.000000 0.000000
rtibia 60.764198
lfoot -15.241400 16.814600
lhumerus -24.907400 -25.162500 17.988800
rthumb -8.985710 -32.477402
root 2.345630 20.174101 40.155102 -178.830002 -34.702599 567.551025
ltoes 2.588270
lfemur -16.465401 -23.457001 15.370400
108
upperback 2.249830 6.405790 -10.676100
rfoot 38.157398 -10.432000
lradius 23.504801
lthumb 0.883634 36.737499
rradius 50.834999
lwrist -23.538500
rhand -34.977600 -0.933049
rhumerus 36.336800 31.253799 -14.540100
lowerneck -7.976430 -3.572890 -2.504650
lhand -25.650200 6.759630
ltibia 19.498600
head 7.564650 -3.523440 6.006900
rwrist 31.307800
lfingers 7.125020
rtoes 35.782902
lowerback 0.159814 5.170140 -0.726820
rfingers 7.125020
lclavicle 0.000000 0.000000
upperneck 16.825701 -9.180170 19.611300
rfemur -83.355797 -13.416700 47.472900
thorax 3.460750 3.087880 -10.772300
rclavicle 0.000000 0.000000
rtibia 49.733898
lfoot -20.061501 12.525400
lhumerus -22.562799 -19.155899 13.037600
rthumb -8.123170 -30.756901
root 2.468160 19.819000 39.197899 -184.181000 -37.862099 571.416016
ltoes -0.545330
lfemur -15.346600 -24.932800 19.019400
109
upperback 1.727640 5.911610 -11.460200
rfoot 34.162399 -6.715350
lradius 24.044901
lthumb -0.400165 37.006802
rradius 52.844398
lwrist -23.656799
rhand -34.540199 -1.855170
rhumerus 35.493099 33.621101 -15.304700
lowerneck -9.030670 -3.164630 -2.766400
lhand -26.979401 7.027460
ltibia 28.455500
head 7.268370 -2.767220 5.116330
rwrist 32.302101
lfingers 7.125020
rtoes 31.612200
lowerback -0.529450 4.812340 -2.533070
rfingers 7.125020
lclavicle -0.000000 -0.000000
upperneck 16.410500 -7.491310 16.420900
rfemur -64.848900 3.102020 24.471399
thorax 3.102260 2.766650 -10.592500
rclavicle -0.000000 -0.000000
rtibia 43.500999
lfoot -28.900600 8.464850
lhumerus -19.942900 -18.009199 10.627500
rthumb -7.701000 -31.694901
root 2.675240 18.938801 37.030899 -187.873993 -46.563301 573.517029
ltoes -8.893360
lfemur -18.494499 -27.881001 23.392000
110
upperback 1.594820 5.275860 -11.559800
rfoot -17.056999 14.544100
lradius 24.078501
lthumb -0.924809 35.548801
rradius 57.345100
lwrist -24.643900
rhand -32.566799 -0.595820
rhumerus 36.374699 32.345699 -15.482100
lowerneck -10.365900 -3.487860 -4.152330
lhand -27.522600 5.571080
ltibia 32.160099
head 7.279010 -2.582430 4.592080
rwrist 32.806099
lfingers 7.125020
rtoes 1.463160
lowerback -0.264541 4.273900 -2.534560
rfingers 7.125020
lclavicle -0.000000 0.000000
upperneck 16.071800 -6.910730 14.009700
rfemur -56.540100 13.841700 18.726700
thorax 2.716850 2.491090 -10.753700
rclavicle -0.000000 0.000000
rtibia 54.338501
lfoot -29.187500 -0.692525
lhumerus -17.733200 -15.212100 10.596700
rthumb -5.796010 -30.496500
root 3.271100 17.632500 33.371700 -192.559006 -61.979198 577.783020
ltoes -22.578400
lfemur -25.518900 -29.431000 35.244202
111
upperback 2.871750 2.770140 -10.652200
rfoot -29.486401 -7.810970
lradius 24.854300
lthumb 0.227089 33.973598
rradius 56.527599
lwrist -26.075899
rhand -32.110802 -0.722411
rhumerus 32.344200 32.813702 -17.009600
lowerneck -8.146430 -4.387310 -4.632770
lhand -26.329901 3.994000
ltibia 55.660099
head 6.457180 -3.165130 4.885670
rwrist 32.296398
lfingers 7.125020
rtoes 6.881720
lowerback 3.056830 2.370230 -0.980160
rfingers 7.125020
lclavicle 0.000000 -0.000000
upperneck 14.243100 -7.934270 14.929200
rfemur -58.431900 8.157900 37.543201
thorax 1.782840 1.335070 -10.836900
rclavicle 0.000000 -0.000000
rtibia 65.038597
lfoot -22.629200 20.654301
lhumerus -7.911820 -13.126000 8.396830
rthumb -5.355690 -30.634701
root 4.396520 17.061501 28.489901 -255.126999 -77.617500 639.012024
ltoes 8.235220
lfemur -38.339298 -1.233790 24.671499
